<svg xmlns="http://www.w3.org/2000/svg" viewBox="0 0 543.62 102.18"><defs><style>.cls-1{fill:#fff;}</style></defs><g id="Layer_2" data-name="Layer 2"><g id="Layer_1-2" data-name="Layer 1"><path class="cls-1" d="M71.28,83.76c-7.66-17.74-17-27.17-27.7-28l-.64,0H41.07l-.64,0c-10.72.84-20,10.26-27.7,28A140,140,0,0,0,7.26,99l-1,3.23H23.52L42,57.94l18.48,44.24H77.71l-1-3.23a137.9,137.9,0,0,0-5.46-15.19"/><path class="cls-1" d="M12.72,18.42c7.66,17.75,17,27.17,27.7,28l.64,0h1.87l.64,0c10.72-.84,20-10.26,27.7-28A140,140,0,0,0,76.74,3.23l1-3.23H60.48L42,44.24,23.52,0H6.29l1,3.23a137.9,137.9,0,0,0,5.46,15.19"/><rect class="cls-1" y="48.9" width="84.01" height="4.38"/><path class="cls-1" d="M117.94,45.93a1.2,1.2,0,0,1-1.2.61h-1c-.56,0-.74-.28-.54-.85L130.75,6.8c.2-.44.44-.67.73-.67s.58.28.79.85l15.27,38.53a1.18,1.18,0,0,1,.12.85,1,1,0,0,1-.72.18l-2.64-.06a1.58,1.58,0,0,1-1.44-1.11l-11.3-28.52q-.42-1-.9-1c-.32,0-.62.39-.9,1.16-1.89,4.73-11.82,28.94-11.82,28.94"/><path class="cls-1" d="M312.43,94.89a1.2,1.2,0,0,1-1.2.61h-1c-.56,0-.74-.28-.54-.85l15.51-38.89c.2-.44.44-.67.73-.67s.58.28.79.85L342,94.47a1.18,1.18,0,0,1,.12.85,1,1,0,0,1-.72.18l-2.64-.06a1.58,1.58,0,0,1-1.44-1.11l-11.3-28.52q-.42-1-.9-1c-.32,0-.62.39-.9,1.16-1.88,4.72-11.82,28.94-11.82,28.94"/><path class="cls-1" d="M186.86,37.31a10.71,10.71,0,0,1,1.18,1c.4.32.34.87-.18,1.64q-4.79,7.45-14.72,7.45a17.54,17.54,0,0,1-13.42-6.06,21,21,0,0,1-5.54-14.72,21.07,21.07,0,0,1,5.54-14.69,17.49,17.49,0,0,1,13.42-6.09q9.93,0,14.3,7.21c.48.81.48,1.37,0,1.7l-.88.49a1.72,1.72,0,0,1-.76.24c-.32,0-.54-.24-.67-.73-.32-1.59-1.55-3.09-3.7-4.52a14.12,14.12,0,0,0-8.06-2.44,12,12,0,0,0-10.09,5.34q-3.9,5.34-3.91,13.35,0,8.31,3.94,13.53a12,12,0,0,0,10,5.22,14,14,0,0,0,8.3-2.54,11.43,11.43,0,0,0,3.21-3.33c.2-.44.38-.89.55-1.33.28-.61.61-.91,1-.91a.85.85,0,0,1,.52.19"/><path class="cls-1" d="M203.55,10.56a1.88,1.88,0,0,0-.09-.82,1.84,1.84,0,0,0-.82-.09h-7.21c-.93,0-1.39-.24-1.39-.73v-1c0-.49.58-.73,1.76-.73h19.75c1.13,0,1.7.24,1.7.73v1c0,.49-.45.73-1.33.73H209.8a6.23,6.23,0,0,0-1.27.06.76.76,0,0,0-.67.85V45.51a.91.91,0,0,1-1,1h-2.24a.91.91,0,0,1-1-1V10.56Z"/><path class="cls-1" d="M225.36,8.2a.91.91,0,0,1,1-1h2.24a.91.91,0,0,1,1,1V45.52a.91.91,0,0,1-1,1h-2.24a.91.91,0,0,1-1-1Z"/><path class="cls-1" d="M238.63,7.11A11.73,11.73,0,0,1,240.09,7a11.19,11.19,0,0,1,1.43.12c.59.08,1,.52,1.37,1.33l12,29.14c.24.57.44.85.61.85s.36-.28.6-.85L268.44,7.9c.24-.61.89-.91,1.93-.91a.79.79,0,0,1,.73.49,1.35,1.35,0,0,1,0,1Q264.44,24.8,255.17,47.1c-.2.49-.4.73-.61.73s-.43-.28-.67-.85L238,8.45a1,1,0,0,1,0-.85.8.8,0,0,1,.64-.49"/><path class="cls-1" d="M285,23.84c0,.93.52,1.39,1.57,1.39h14.24c1.13,0,1.7.23,1.7.68V27c0,.54-.46.81-1.39.81H287c-1.25,0-1.9.32-1.94,1V43.11a.75.75,0,0,0,.67.84A6.23,6.23,0,0,0,287,44h15.81c.93,0,1.39.25,1.39.74v1.12c0,.46-.59.68-1.76.68H281.76a.91.91,0,0,1-1-1V8.2a.91.91,0,0,1,1-1h20.05c1.13,0,1.7.25,1.7.74V9c0,.5-.46.74-1.39.74H287a6.23,6.23,0,0,0-1.27.06.75.75,0,0,0-.67.84V23.84Z"/><path class="cls-1" d="M119.45,72.79c0,.93.52,1.39,1.57,1.39h14.24c1.13,0,1.7.23,1.7.68v1.06c0,.54-.46.81-1.39.81H121.4c-1.25,0-1.9.32-1.94,1V92.06a.75.75,0,0,0,.67.84,6.23,6.23,0,0,0,1.27.06h15.81c.93,0,1.39.25,1.39.74v1.12c0,.46-.59.68-1.76.68H116.18a.91.91,0,0,1-1-1V57.15a.91.91,0,0,1,1-1h20c1.13,0,1.7.25,1.7.74v1.06c0,.5-.46.74-1.39.74H121.4a6.23,6.23,0,0,0-1.27.06.75.75,0,0,0-.67.84V72.79Z"/><path class="cls-1" d="M152.87,64.62c-.6-.82-1-1.22-1.32-1.22s-.48.55-.48,1.64V94.48c0,.69-.18,1-.54,1h-1.82c-.36,0-.54-.34-.54-1V57.16c0-.69.18-1,.54-1h2.73a1.85,1.85,0,0,1,1.45.85l20.66,27a.67.67,0,0,0,.55.36c.45,0,.67-.5.67-1.51V57.17c0-.69.2-1,.61-1h1.51c.4,0,.61.35.61,1V94.54c0,1-.14,1.58-.42,1.58s-.36-.2-.6-.61Z"/><path class="cls-1" d="M193.36,59.52a1.88,1.88,0,0,0-.09-.82,1.84,1.84,0,0,0-.82-.09h-7.21c-.93,0-1.39-.24-1.39-.73v-1c0-.49.58-.73,1.76-.73h19.75c1.13,0,1.7.24,1.7.73v1c0,.49-.45.73-1.33.73h-6.12a6.23,6.23,0,0,0-1.27.06.76.76,0,0,0-.67.85V94.47a.91.91,0,0,1-1,1H194.4a.91.91,0,0,1-1-1V59.52Z"/><path class="cls-1" d="M218.92,72.79c0,.93.52,1.39,1.57,1.39h14.24c1.13,0,1.7.23,1.7.68v1.06c0,.54-.46.81-1.39.81H220.87c-1.25,0-1.9.32-1.94,1V92.06a.75.75,0,0,0,.67.84,6.23,6.23,0,0,0,1.27.06h15.81c.93,0,1.39.25,1.39.74v1.12c0,.46-.59.68-1.76.68H215.65a.91.91,0,0,1-1-1V57.15a.91.91,0,0,1,1-1h20c1.13,0,1.7.25,1.7.74v1.06c0,.5-.46.74-1.39.74H220.87a6.23,6.23,0,0,0-1.27.06.75.75,0,0,0-.67.84V72.79Z"/><path class="cls-1" d="M261.63,77.33a1.9,1.9,0,0,0,.42.91L273.5,94.41a.53.53,0,0,1,.06.24c0,.57-.3.85-.91.85H269.8a1.7,1.7,0,0,1-1.45-.55L254.9,76.05a1.32,1.32,0,0,1-.3-.73c0-.4.44-.55,1.33-.43a51.2,51.2,0,0,0,5.27,0,8.31,8.31,0,0,0,5.91-2.36,7.61,7.61,0,0,0,2.33-5.63,8.21,8.21,0,0,0-2.67-6.45,9.42,9.42,0,0,0-6.54-2.39h-7c-.85,0-1.27.34-1.27,1V94.47a.91.91,0,0,1-1,1h-2.24a.91.91,0,0,1-1-1V57.15a.91.91,0,0,1,1-1h11.57a17.68,17.68,0,0,1,9.63,2.42,8.88,8.88,0,0,1,4.36,7.94,9.61,9.61,0,0,1-3.45,7.63,11.31,11.31,0,0,1-7.57,2.73c-1.05,0-1.57.16-1.57.49"/><path class="cls-1" d="M290.28,59.52a1.88,1.88,0,0,0-.09-.82,1.84,1.84,0,0,0-.82-.09h-7.21c-.93,0-1.39-.24-1.39-.73v-1c0-.49.58-.73,1.76-.73h19.75c1.13,0,1.7.24,1.7.73v1c0,.49-.45.73-1.33.73h-6.12a6.23,6.23,0,0,0-1.27.06.76.76,0,0,0-.67.85V94.47a.91.91,0,0,1-1,1h-2.24a.91.91,0,0,1-1-1V59.52Z"/><path class="cls-1" d="M352.25,57.15a.91.91,0,0,1,1-1h2.24a.91.91,0,0,1,1,1V94.47a.91.91,0,0,1-1,1h-2.24a.91.91,0,0,1-1-1Z"/><path class="cls-1" d="M371.92,64.62c-.6-.82-1-1.22-1.32-1.22s-.48.55-.48,1.64V94.48c0,.69-.18,1-.54,1h-1.82c-.36,0-.54-.34-.54-1V57.16c0-.69.18-1,.54-1h2.73a1.85,1.85,0,0,1,1.45.85l20.66,27a.67.67,0,0,0,.54.36c.45,0,.67-.5.67-1.51V57.17c0-.69.2-1,.61-1h1.52c.4,0,.61.35.61,1V94.54c0,1-.14,1.58-.42,1.58s-.36-.2-.6-.61Z"/><path class="cls-1" d="M437.66,63.21c-.28,0-.57.36-.85,1.09l-12.3,31.2c-.2.57-.48.85-.85.85s-.59-.28-.79-.85Q415,75.32,410.57,64.18c-.24-.69-.47-1-.67-1s-.3.38-.3,1.15V94.47c0,.69-.18,1-.54,1h-1.39a.47.47,0,0,1-.42-.18,1.84,1.84,0,0,1-.12-.85V57.15c0-.69.18-1,.54-1h3.15a1.91,1.91,0,0,1,1.88,1.33q8.73,22,11.57,28.83c.2.53.38.79.54.79s.38-.22.55-.67q7.39-18.66,11.57-29.14a1.61,1.61,0,0,1,1.64-1.15h2.85a.91.91,0,0,1,1,1V94.46a.91.91,0,0,1-1,1h-2.18a.91.91,0,0,1-1-1V64.53c0-.87-.19-1.32-.55-1.32"/><path class="cls-1" d="M456,72.79c0,.93.52,1.39,1.58,1.39h14.23c1.13,0,1.7.23,1.7.68v1.06c0,.54-.46.81-1.39.81H458c-1.25,0-1.9.32-1.94,1V92.06a.75.75,0,0,0,.67.84A6.3,6.3,0,0,0,458,93h15.81c.93,0,1.39.25,1.39.74v1.12c0,.46-.59.68-1.76.68H452.74a.91.91,0,0,1-1-1V57.15a.91.91,0,0,1,1-1h20.05c1.13,0,1.7.25,1.7.74v1.06c0,.5-.46.74-1.39.74H458a6.23,6.23,0,0,0-1.27.06.76.76,0,0,0-.67.84V72.79Z"/><path class="cls-1" d="M489.44,64.62c-.6-.82-1-1.22-1.32-1.22s-.48.55-.48,1.64V94.48c0,.69-.18,1-.54,1h-1.82c-.36,0-.55-.34-.55-1V57.16c0-.69.18-1,.55-1H488a1.85,1.85,0,0,1,1.45.85l20.66,27a.67.67,0,0,0,.55.36c.44,0,.67-.5.67-1.51V57.17c0-.69.2-1,.61-1h1.51c.4,0,.6.35.6,1V94.54c0,1-.14,1.58-.42,1.58s-.36-.2-.6-.61Z"/><path class="cls-1" d="M529.92,59.52a1.88,1.88,0,0,0-.09-.82,1.84,1.84,0,0,0-.82-.09H521.8c-.93,0-1.39-.24-1.39-.73v-1c0-.49.58-.73,1.76-.73h19.75c1.13,0,1.7.24,1.7.73v1c0,.49-.45.73-1.33.73h-6.12a6.23,6.23,0,0,0-1.27.06.76.76,0,0,0-.67.85V94.47a.91.91,0,0,1-1,1H531a.91.91,0,0,1-1-1V59.52Z"/></g></g></svg>