<svg xmlns="http://www.w3.org/2000/svg" viewBox="0 0 548.09 406.75"><defs><style>.cls-1{fill:#fff;}</style></defs><g id="Layer_2" data-name="Layer 2"><g id="Layer_1-2" data-name="Layer 1"><path class="cls-1" d="M344.94,196.56c-18-41.64-39.85-63.76-65-65.73l-1.51-.12H274l-1.51.12c-25.17,2-47,24.09-65,65.73a326.76,326.76,0,0,0-12.83,35.66l-2.27,7.57h40.43L276.22,136,319.6,239.79H360l-2.27-7.57a324,324,0,0,0-12.82-35.66"/><path class="cls-1" d="M207.52,43.23c18,41.64,39.85,63.76,65,65.73l1.51.12h4.39l1.51-.12c25.16-2,47-24.09,65-65.73A326.76,326.76,0,0,0,357.78,7.57L360.05,0H319.62L276.24,103.83,232.86,0H192.43l2.27,7.57a324.71,324.71,0,0,0,12.82,35.66"/><rect class="cls-1" x="177.66" y="114.76" width="197.15" height="10.28"/><path class="cls-1" d="M154.58,342.25A1.55,1.55,0,0,1,153,343h-1.23q-1.08,0-.69-1.08L171,292.2c.26-.57.57-.85.93-.85s.75.36,1,1.08l19.53,49.29a1.51,1.51,0,0,1,.16,1.09,1.34,1.34,0,0,1-.92.23l-3.38-.08a2,2,0,0,1-1.84-1.42L172,305.06c-.36-.88-.74-1.31-1.15-1.31s-.79.5-1.15,1.49c-2.4,6-15.11,37-15.11,37"/><path class="cls-1" d="M252.37,404.87a1.55,1.55,0,0,1-1.54.78H249.6q-1.08,0-.69-1.08l19.84-49.75c.26-.57.57-.85.93-.85s.75.36,1,1.08l19.53,49.29a1.51,1.51,0,0,1,.16,1.09,1.34,1.34,0,0,1-.92.23l-3.38-.08a2,2,0,0,1-1.84-1.42l-14.46-36.48c-.36-.88-.74-1.31-1.15-1.31s-.79.5-1.15,1.49c-2.4,6-15.11,37-15.11,37"/><path class="cls-1" d="M242.75,331.22a13.76,13.76,0,0,1,1.51,1.28c.52.41.44,1.11-.23,2.09q-6.12,9.53-18.83,9.53A22.39,22.39,0,0,1,208,336.37a28.5,28.5,0,0,1,0-37.62A22.39,22.39,0,0,1,225.2,291q12.7,0,18.29,9.22c.62,1,.62,1.76,0,2.17-.36.21-.74.42-1.12.62a2.14,2.14,0,0,1-1,.31c-.41,0-.7-.31-.85-.94q-.62-3-4.73-5.78a18.11,18.11,0,0,0-10.31-3.12q-7.9,0-12.9,6.83t-5,17.07q0,10.64,5,17.31t12.79,6.67a17.84,17.84,0,0,0,10.62-3.25,14.46,14.46,0,0,0,4.11-4.26c.26-.57.49-1.14.7-1.71.36-.77.77-1.16,1.24-1.16a1.7,1.7,0,0,1,.64.28"/><path class="cls-1" d="M264.09,297a.85.85,0,0,0-1.17-1.17H253.7c-1.19,0-1.78-.31-1.78-.93v-1.32q0-.93,2.25-.93h25.26c1.45,0,2.17.31,2.17.93v1.32c0,.62-.57.93-1.7.93h-7.83a8,8,0,0,0-1.63.08,1,1,0,0,0-.85,1.08V341.7a1.17,1.17,0,0,1-1.32,1.32H265.4a1.17,1.17,0,0,1-1.32-1.32V297Z"/><path class="cls-1" d="M292,294a1.17,1.17,0,0,1,1.32-1.32h2.87A1.17,1.17,0,0,1,297.5,294v47.73a1.17,1.17,0,0,1-1.32,1.32h-2.87a1.17,1.17,0,0,1-1.32-1.32Z"/><path class="cls-1" d="M309,292.59a15.44,15.44,0,0,1,1.86-.15,14.45,14.45,0,0,1,1.82.15c.75.1,1.33.67,1.75,1.7l15.33,37.28c.31.73.57,1.08.77,1.08s.46-.36.77-1.09l15.82-38c.31-.78,1.13-1.17,2.47-1.17a1,1,0,0,1,.93.62,1.76,1.76,0,0,1,0,1.24Q342,315.21,330.1,343.72c-.26.62-.52.93-.77.93s-.54-.36-.85-1.09L308.1,294.28a1.27,1.27,0,0,1,0-1.09,1.09,1.09,0,0,1,.82-.6"/><path class="cls-1" d="M368.32,314q0,1.77,2,1.77h18.21c1.45,0,2.17.29,2.17.88V318c0,.69-.59,1-1.78,1H370.8c-1.6,0-2.43.41-2.48,1.23v18.38a1,1,0,0,0,.85,1.08,8,8,0,0,0,1.63.08H391c1.19,0,1.78.32,1.78,1v1.43q0,.87-2.25.87H364.13a1.17,1.17,0,0,1-1.32-1.32V294a1.17,1.17,0,0,1,1.32-1.32h25.65c1.45,0,2.17.32,2.17.95V295c0,.64-.59,1-1.78,1H370.8a8.09,8.09,0,0,0-1.63.08,1,1,0,0,0-.85,1.08Z"/><path class="cls-1" d="M5.51,376.6q0,1.77,2,1.77H25.73c1.44,0,2.17.29,2.17.88v1.35c0,.69-.59,1-1.78,1H8c-1.6,0-2.43.41-2.48,1.23v18.38a1,1,0,0,0,.85,1.08A7.94,7.94,0,0,0,8,402.4H28.22c1.19,0,1.78.32,1.78,1v1.43q0,.87-2.25.87H1.32A1.17,1.17,0,0,1,0,404.33V356.6a1.17,1.17,0,0,1,1.32-1.32H27c1.45,0,2.17.32,2.17,1v1.35c0,.64-.6.95-1.78.95H8a8.09,8.09,0,0,0-1.63.08,1,1,0,0,0-.85,1.08V376.6Z"/><path class="cls-1" d="M48.26,366.15c-.77-1-1.33-1.57-1.69-1.57s-.61.7-.61,2.09v37.66c0,.88-.23,1.32-.7,1.32H42.93c-.46,0-.7-.44-.7-1.32V356.6c0-.88.23-1.32.7-1.32h3.49a2.4,2.4,0,0,1,1.86,1.08L74.7,390.85a.86.86,0,0,0,.7.46c.57,0,.85-.64.85-1.94V356.59q0-1.32.78-1.32H79c.51,0,.77.44.77,1.32V404.4c0,1.35-.18,2-.54,2-.2,0-.46-.26-.77-.78Z"/><path class="cls-1" d="M100.05,359.63a2.31,2.31,0,0,0-.12-1.05,2.31,2.31,0,0,0-1.05-.12H89.66c-1.19,0-1.78-.31-1.78-.93v-1.32q0-.93,2.25-.93h25.26c1.45,0,2.17.31,2.17.93v1.32c0,.62-.57.93-1.7.93H108a8,8,0,0,0-1.63.08,1,1,0,0,0-.85,1.08v44.71a1.17,1.17,0,0,1-1.32,1.32h-2.87a1.17,1.17,0,0,1-1.32-1.32v-44.7Z"/><path class="cls-1" d="M132.75,376.6q0,1.77,2,1.77H153c1.45,0,2.17.29,2.17.88v1.35c0,.69-.59,1-1.78,1H135.23c-1.6,0-2.43.41-2.48,1.23v18.38a1,1,0,0,0,.85,1.08,7.94,7.94,0,0,0,1.63.08h20.23c1.19,0,1.78.32,1.78,1v1.43q0,.87-2.25.87H128.56a1.17,1.17,0,0,1-1.32-1.32V356.6a1.17,1.17,0,0,1,1.32-1.32h25.65c1.45,0,2.17.32,2.17,1v1.35c0,.64-.6.95-1.78.95H135.23a8.09,8.09,0,0,0-1.63.08,1,1,0,0,0-.85,1.08V376.6Z"/><path class="cls-1" d="M187.38,382.41a2.39,2.39,0,0,0,.54,1.16l14.65,20.69a.71.71,0,0,1,.08.31c0,.72-.39,1.09-1.16,1.09h-3.64A2.2,2.2,0,0,1,196,405l-17.2-24.18a1.69,1.69,0,0,1-.39-.93c0-.52.57-.7,1.7-.54a61,61,0,0,0,6.74,0,10.59,10.59,0,0,0,7.56-3,9.72,9.72,0,0,0,3-7.21,10.54,10.54,0,0,0-3.41-8.25,12.07,12.07,0,0,0-8.37-3.06h-9c-1.08,0-1.63.44-1.63,1.32v45.26a1.17,1.17,0,0,1-1.32,1.32h-2.87a1.17,1.17,0,0,1-1.32-1.32V356.61a1.17,1.17,0,0,1,1.32-1.32h14.8q7.44,0,12.32,3.1a11.37,11.37,0,0,1,5.58,10.15,12.26,12.26,0,0,1-4.42,9.76,14.53,14.53,0,0,1-9.69,3.49c-1.33,0-2,.21-2,.62"/><path class="cls-1" d="M224,359.63a.85.85,0,0,0-1.17-1.17h-9.22c-1.19,0-1.78-.31-1.78-.93v-1.32q0-.93,2.25-.93h25.26c1.45,0,2.17.31,2.17.93v1.32c0,.62-.57.93-1.7.93H232a8,8,0,0,0-1.63.08,1,1,0,0,0-.85,1.08v44.71a1.17,1.17,0,0,1-1.32,1.32h-2.87a1.17,1.17,0,0,1-1.32-1.32v-44.7Z"/><path class="cls-1" d="M303.3,356.6a1.17,1.17,0,0,1,1.32-1.32h2.87a1.17,1.17,0,0,1,1.32,1.32v47.73a1.17,1.17,0,0,1-1.32,1.32h-2.87a1.17,1.17,0,0,1-1.32-1.32Z"/><path class="cls-1" d="M328.47,366.15c-.77-1-1.33-1.57-1.69-1.57s-.61.7-.61,2.09v37.66c0,.88-.23,1.32-.7,1.32h-2.33c-.46,0-.7-.44-.7-1.32V356.6c0-.88.23-1.32.7-1.32h3.49a2.4,2.4,0,0,1,1.86,1.08l26.42,34.49a.86.86,0,0,0,.7.46c.57,0,.85-.64.85-1.94V356.59q0-1.32.78-1.32h1.94c.52,0,.77.44.77,1.32V404.4c0,1.35-.18,2-.54,2-.2,0-.46-.26-.77-.78Z"/><path class="cls-1" d="M412.57,364.35c-.36,0-.72.46-1.08,1.4l-15.73,39.91c-.26.72-.62,1.09-1.09,1.09s-.75-.36-1-1.09q-10.08-25.8-15.73-40.06c-.31-.88-.59-1.32-.85-1.32s-.39.49-.39,1.47v38.59c0,.88-.23,1.32-.7,1.32h-1.78a.6.6,0,0,1-.54-.23,2.41,2.41,0,0,1-.16-1.09V356.61c0-.88.23-1.32.7-1.32h4a2.43,2.43,0,0,1,2.4,1.71q11.16,28.13,14.8,36.89c.26.67.49,1,.7,1s.49-.28.7-.85q9.45-23.87,14.8-37.27a2.06,2.06,0,0,1,2.09-1.47h3.64a1.17,1.17,0,0,1,1.32,1.32v47.73a1.17,1.17,0,0,1-1.32,1.32h-2.79a1.17,1.17,0,0,1-1.32-1.32V366.08c0-1.16-.23-1.73-.69-1.73"/><path class="cls-1" d="M436.05,376.6q0,1.77,2,1.77h18.21c1.45,0,2.17.29,2.17.88v1.35c0,.69-.59,1-1.78,1H438.53c-1.6,0-2.43.41-2.48,1.23v18.38a1,1,0,0,0,.85,1.08,8,8,0,0,0,1.63.08h20.22c1.19,0,1.78.32,1.78,1v1.43q0,.87-2.25.87H431.85a1.17,1.17,0,0,1-1.32-1.32V356.6a1.17,1.17,0,0,1,1.32-1.32H457.5c1.45,0,2.17.32,2.17,1v1.35c0,.64-.59.95-1.78.95H438.52a8,8,0,0,0-1.63.08,1,1,0,0,0-.85,1.08V376.6Z"/><path class="cls-1" d="M478.8,366.15c-.77-1-1.33-1.57-1.69-1.57s-.61.7-.61,2.09v37.66c0,.88-.23,1.32-.7,1.32h-2.32c-.47,0-.7-.44-.7-1.32V356.6c0-.88.23-1.32.7-1.32H477a2.4,2.4,0,0,1,1.86,1.08l26.41,34.5a.86.86,0,0,0,.7.46c.57,0,.85-.64.85-1.94V356.6q0-1.32.78-1.32h1.94c.52,0,.77.44.77,1.32v47.81c0,1.35-.18,2-.54,2-.2,0-.46-.26-.77-.78Z"/><path class="cls-1" d="M530.58,359.63a.85.85,0,0,0-1.17-1.17h-9.22c-1.19,0-1.78-.31-1.78-.93v-1.32q0-.93,2.25-.93h25.26c1.45,0,2.17.31,2.17.93v1.32q0,.93-1.71.93h-7.83a8.09,8.09,0,0,0-1.63.08,1,1,0,0,0-.85,1.08v44.71a1.17,1.17,0,0,1-1.32,1.32h-2.87a1.17,1.17,0,0,1-1.32-1.32v-44.7Z"/></g></g></svg>