<svg id="Layer_1" data-name="Layer 1" xmlns="http://www.w3.org/2000/svg" viewBox="0 0 548.09 406.74"><defs><style>.cls-1{fill:#fffdfd;}</style></defs><path class="cls-1" d="M344.94,196.56c-18-41.64-39.85-63.76-65-65.73l-1.51-.12H274l-1.51.12c-25.16,2-47,24.09-65,65.73a328.87,328.87,0,0,0-12.83,35.66l-2.27,7.57h40.44L276.23,136l43.38,103.83H360l-2.27-7.57a328.87,328.87,0,0,0-12.83-35.66"/><path class="cls-1" d="M207.51,43.23c18,41.64,39.85,63.76,65,65.73l1.51.12h4.39l1.51-.12c25.16-2,47-24.09,65-65.73A328.87,328.87,0,0,0,357.77,7.57L360,0H319.61L276.23,103.83,232.85,0H192.41l2.27,7.57a328.87,328.87,0,0,0,12.83,35.66"/><rect class="cls-1" x="177.65" y="114.76" width="197.15" height="10.28"/><path class="cls-1" d="M154.57,342.25A1.53,1.53,0,0,1,153,343H151.8c-.72,0-1-.36-.69-1.09L171,292.2c.25-.57.56-.85.93-.85s.74.36,1,1.08l19.53,49.29a1.49,1.49,0,0,1,.16,1.08,1.33,1.33,0,0,1-.93.24l-3.37-.08a2,2,0,0,1-1.85-1.42L172,305.06c-.36-.88-.74-1.31-1.15-1.31s-.79.49-1.15,1.49c-2.39,6-15.1,37-15.1,37"/><path class="cls-1" d="M252.37,404.88a1.55,1.55,0,0,1-1.54.78h-1.24c-.72,0-1-.36-.69-1.09l19.84-49.75c.26-.56.57-.85.93-.85s.75.36,1,1.09l19.52,49.28a1.51,1.51,0,0,1,.16,1.09,1.36,1.36,0,0,1-.92.23l-3.38-.08a2,2,0,0,1-1.85-1.42l-14.45-36.48c-.36-.87-.74-1.31-1.15-1.31s-.79.5-1.15,1.49c-2.39,6-15.09,37-15.09,37"/><path class="cls-1" d="M242.74,331.22a13.76,13.76,0,0,1,1.51,1.28c.52.41.44,1.11-.23,2.09q-6.12,9.53-18.83,9.53A22.42,22.42,0,0,1,208,336.37a28.5,28.5,0,0,1,0-37.62A22.39,22.39,0,0,1,225.19,291q12.7,0,18.29,9.22c.62,1,.62,1.76,0,2.17-.36.21-.74.42-1.13.62a2.11,2.11,0,0,1-1,.31c-.41,0-.69-.31-.85-.93-.41-2-2-4-4.72-5.78a18,18,0,0,0-10.31-3.13q-7.91,0-12.9,6.83t-5,17.08q0,10.63,5,17.31t12.78,6.67A17.84,17.84,0,0,0,236,338.08a14.32,14.32,0,0,0,4.1-4.27c.26-.56.5-1.13.7-1.7.36-.78.78-1.16,1.24-1.16a1.37,1.37,0,0,1,.66.27"/><path class="cls-1" d="M264.09,297A2.31,2.31,0,0,0,264,296a2.22,2.22,0,0,0-1-.12H253.7c-1.18,0-1.78-.31-1.78-.93V293.6q0-.93,2.25-.93h25.26c1.45,0,2.17.31,2.17.93v1.31c0,.62-.57.93-1.7.93h-7.83a8.09,8.09,0,0,0-1.63.08,1,1,0,0,0-.85,1.09v44.71a1.17,1.17,0,0,1-1.32,1.32h-2.86a1.17,1.17,0,0,1-1.32-1.32Z"/><rect class="cls-1" x="291.99" y="292.67" width="5.5" height="50.37" rx="1.32"/><path class="cls-1" d="M309,292.59a15.49,15.49,0,0,1,1.86-.16,14.78,14.78,0,0,1,1.82.16c.75.1,1.34.67,1.75,1.7l15.33,37.28q.46,1.08.78,1.08c.2,0,.46-.36.77-1.08l15.82-38c.31-.78,1.13-1.17,2.47-1.17a1,1,0,0,1,.93.62,1.66,1.66,0,0,1,0,1.24q-8.52,20.93-20.38,49.44c-.26.62-.52.93-.77.93s-.55-.36-.86-1.08L308.1,294.29a1.24,1.24,0,0,1,0-1.08,1,1,0,0,1,.82-.62"/><path class="cls-1" d="M368.31,314c0,1.19.67,1.78,2,1.78h18.21c1.44,0,2.17.29,2.17.87V318c0,.69-.6,1-1.78,1H370.79c-1.6,0-2.43.41-2.48,1.23v18.39a1,1,0,0,0,.86,1.07,7.12,7.12,0,0,0,1.62.08H391c1.19,0,1.78.32,1.78,1v1.43c0,.59-.75.88-2.25.88H364.13a1.17,1.17,0,0,1-1.32-1.32V294a1.16,1.16,0,0,1,1.32-1.31h25.65c1.44,0,2.17.31,2.17.95V295c0,.63-.6.95-1.78.95H370.79a7.88,7.88,0,0,0-1.62.08,1,1,0,0,0-.86,1.08Z"/><path class="cls-1" d="M5.5,376.61c0,1.18.67,1.77,2,1.77H25.73c1.44,0,2.17.29,2.17.88v1.34c0,.69-.6,1-1.78,1H8c-1.6,0-2.43.41-2.48,1.23v18.38a1,1,0,0,0,.86,1.08A8.35,8.35,0,0,0,8,402.4H28.21c1.19,0,1.78.32,1.78,1v1.43q0,.87-2.25.87H1.32A1.17,1.17,0,0,1,0,404.34V356.61a1.17,1.17,0,0,1,1.32-1.32H27c1.44,0,2.17.32,2.17.95v1.35c0,.64-.6,1-1.78,1H8a7.88,7.88,0,0,0-1.62.08,1,1,0,0,0-.86,1.08Z"/><path class="cls-1" d="M48.26,366.15c-.77-1-1.34-1.56-1.69-1.56s-.62.7-.62,2.09v37.66q0,1.32-.69,1.32H42.93c-.46,0-.7-.44-.7-1.32V356.61c0-.88.24-1.32.7-1.32h3.49a2.4,2.4,0,0,1,1.86,1.08L74.7,390.86a.86.86,0,0,0,.7.46c.57,0,.85-.64.85-1.93V356.61q0-1.32.78-1.32H79q.78,0,.78,1.32v47.81q0,2-.54,2c-.21,0-.47-.26-.77-.77Z"/><path class="cls-1" d="M100,359.63a2.56,2.56,0,0,0-.11-1.05,2.38,2.38,0,0,0-1.05-.11H89.66c-1.19,0-1.78-.31-1.78-.93v-1.32c0-.62.74-.93,2.24-.93h25.27q2.16,0,2.16.93v1.32c0,.62-.56.93-1.7.93H108a8.35,8.35,0,0,0-1.62.07,1,1,0,0,0-.86,1.09v44.71a1.16,1.16,0,0,1-1.31,1.32h-2.87a1.17,1.17,0,0,1-1.32-1.32Z"/><path class="cls-1" d="M132.74,376.61c0,1.18.67,1.77,2,1.77H153c1.44,0,2.17.29,2.17.88v1.34c0,.69-.6,1-1.78,1H135.22c-1.6,0-2.43.41-2.48,1.23v18.38a1,1,0,0,0,.86,1.08,8.35,8.35,0,0,0,1.62.07h20.23c1.19,0,1.78.32,1.78,1v1.43q0,.87-2.25.87H128.56a1.17,1.17,0,0,1-1.32-1.32V356.61a1.17,1.17,0,0,1,1.32-1.32h25.65c1.44,0,2.17.32,2.17.95v1.35c0,.64-.6,1-1.78,1H135.22a7.88,7.88,0,0,0-1.62.08,1,1,0,0,0-.86,1.08Z"/><path class="cls-1" d="M187.37,382.41a2.34,2.34,0,0,0,.55,1.16l14.64,20.69a.75.75,0,0,1,.08.31c0,.73-.39,1.09-1.16,1.09h-3.65A2.21,2.21,0,0,1,196,405l-17.2-24.18a1.69,1.69,0,0,1-.39-.93q0-.77,1.71-.54a61,61,0,0,0,6.74,0,10.59,10.59,0,0,0,7.56-3,9.77,9.77,0,0,0,3-7.21,10.54,10.54,0,0,0-3.41-8.25,12.07,12.07,0,0,0-8.37-3.06h-9c-1.08,0-1.63.44-1.63,1.32v45.25a1.16,1.16,0,0,1-1.31,1.32h-2.87a1.17,1.17,0,0,1-1.32-1.32V356.61a1.17,1.17,0,0,1,1.32-1.32h14.8q7.44,0,12.32,3.1a11.37,11.37,0,0,1,5.58,10.15,12.26,12.26,0,0,1-4.42,9.76,14.45,14.45,0,0,1-9.68,3.49c-1.35,0-2,.21-2,.62"/><path class="cls-1" d="M224,359.63a2.31,2.31,0,0,0-.12-1.05,2.38,2.38,0,0,0-1-.11h-9.22c-1.19,0-1.78-.31-1.78-.93v-1.32q0-.93,2.25-.93h25.26c1.45,0,2.17.31,2.17.93v1.32q0,.93-1.71.93H232a8.49,8.49,0,0,0-1.63.07,1,1,0,0,0-.85,1.09v44.71a1.17,1.17,0,0,1-1.32,1.32h-2.87a1.16,1.16,0,0,1-1.31-1.32Z"/><rect class="cls-1" x="303.3" y="355.29" width="5.5" height="50.37" rx="1.32"/><path class="cls-1" d="M328.46,366.15c-.77-1-1.33-1.56-1.69-1.56s-.61.7-.61,2.09v37.66c0,.88-.23,1.32-.7,1.32h-2.32c-.47,0-.7-.44-.7-1.32V356.61c0-.88.23-1.32.7-1.32h3.48a2.4,2.4,0,0,1,1.86,1.08l26.43,34.49a.83.83,0,0,0,.69.46c.57,0,.86-.64.86-1.93V356.61c0-.88.25-1.32.77-1.32h1.94c.51,0,.77.44.77,1.32v47.81q0,2-.54,2c-.2,0-.46-.26-.77-.77Z"/><path class="cls-1" d="M412.56,364.36c-.36,0-.72.46-1.08,1.39l-15.73,39.91c-.26.72-.63,1.08-1.09,1.08s-.75-.36-1-1.08q-10.06-25.8-15.73-40.06c-.31-.88-.59-1.32-.85-1.32s-.39.49-.39,1.47v38.59c0,.88-.23,1.32-.7,1.32H374.2a.6.6,0,0,1-.54-.23,2.41,2.41,0,0,1-.16-1.09V356.61c0-.88.24-1.32.7-1.32h4a2.44,2.44,0,0,1,2.4,1.7q11.16,28.14,14.81,36.89c.25.67.49,1,.69,1s.49-.29.7-.85q9.45-23.88,14.8-37.28a2.06,2.06,0,0,1,2.09-1.47h3.65a1.16,1.16,0,0,1,1.31,1.32v47.73a1.16,1.16,0,0,1-1.31,1.32h-2.79a1.17,1.17,0,0,1-1.32-1.32V366.06c0-1.14-.23-1.7-.7-1.7"/><path class="cls-1" d="M436,376.61c0,1.18.67,1.77,2,1.77h18.21c1.44,0,2.17.29,2.17.88v1.34c0,.69-.6,1-1.79,1H438.52c-1.6,0-2.43.41-2.48,1.23v18.38a1,1,0,0,0,.85,1.08,8.57,8.57,0,0,0,1.63.07h20.23c1.18,0,1.78.32,1.78,1v1.43q0,.87-2.25.87H431.86a1.17,1.17,0,0,1-1.32-1.32V356.61a1.17,1.17,0,0,1,1.32-1.32h25.65c1.44,0,2.17.32,2.17.95v1.35c0,.64-.6,1-1.79,1H438.52a8.09,8.09,0,0,0-1.63.08,1,1,0,0,0-.85,1.08Z"/><path class="cls-1" d="M478.79,366.15c-.76-1-1.33-1.56-1.68-1.56s-.62.7-.62,2.09v37.66c0,.88-.23,1.32-.7,1.32h-2.32c-.47,0-.7-.44-.7-1.32V356.61c0-.88.23-1.32.7-1.32H477a2.4,2.4,0,0,1,1.86,1.08l26.42,34.49a.85.85,0,0,0,.7.46c.56,0,.85-.64.85-1.93V356.61q0-1.32.78-1.32h1.93q.78,0,.78,1.32v47.81q0,2-.54,2c-.21,0-.47-.26-.78-.77Z"/><path class="cls-1" d="M530.58,359.63a2.31,2.31,0,0,0-.12-1.05c-.07-.08-.42-.11-1-.11H520.2c-1.19,0-1.79-.31-1.79-.93v-1.32q0-.93,2.25-.93h25.26c1.45,0,2.17.31,2.17.93v1.32c0,.62-.57.93-1.7.93h-7.83a8.57,8.57,0,0,0-1.63.07,1,1,0,0,0-.85,1.09v44.71a1.17,1.17,0,0,1-1.32,1.32H531.9a1.17,1.17,0,0,1-1.32-1.32Z"/></svg>