<svg id="Layer_1" data-name="Layer 1" xmlns="http://www.w3.org/2000/svg" viewBox="0 0 435.79 62.95"><defs><style>.cls-1{fill:#fff;}</style></defs><path class="cls-1" d="M160.39,1.14q7.31,0,12.2,6.24,1.33,1.6.09,2.4a3.75,3.75,0,0,1-.84.54,2.64,2.64,0,0,1-1,.36c-.24,0-.62-.39-1.16-1.16Q166.1,4,160.65,4a10.07,10.07,0,0,0-8.28,3.75,13.06,13.06,0,0,0-2.76,8.55,9.31,9.31,0,0,0,3.21,7.3,30.83,30.83,0,0,0,7.3,4.1q7.83,3.48,10.51,5.79a13.55,13.55,0,0,1,4.63,10.78A16.59,16.59,0,0,1,170,56.82a17.7,17.7,0,0,1-12.65,5q-9.36,0-14.16-7.66c-.48-.71-.45-1.27.09-1.69a6,6,0,0,1,1.6-1.07.81.81,0,0,1,1.06.36,4.2,4.2,0,0,0,.45.8q4.82,6.24,9.89,6.24a11.49,11.49,0,0,0,8.82-3.66,12.7,12.7,0,0,0,3.11-8.82,10.72,10.72,0,0,0-3.92-8.81q-1.86-1.6-8.81-4.81-6.33-3-8.91-5.44a13.3,13.3,0,0,1-3.92-10A14.68,14.68,0,0,1,148,5.77a18.34,18.34,0,0,1,12.43-4.63"/><path class="cls-1" d="M293.56,13c-.41,0-.83.53-1.24,1.6L274.23,60.46c-.29.83-.71,1.25-1.24,1.25s-.87-.42-1.16-1.25q-11.59-29.66-18.09-46c-.35-1-.68-1.51-1-1.51s-.44.56-.44,1.69V59c0,1-.27,1.51-.8,1.51h-2.05a.7.7,0,0,1-.63-.26,2.82,2.82,0,0,1-.18-1.25V4.08c0-1,.27-1.51.8-1.51h4.64a2.81,2.81,0,0,1,2.76,2q12.83,32.34,17,42.4c.3.77.57,1.16.8,1.16s.57-.33.8-1q10.88-27.43,17-42.85a2.36,2.36,0,0,1,2.4-1.69h4.19a1.33,1.33,0,0,1,1.51,1.14,1.21,1.21,0,0,1,0,.38V59a1.33,1.33,0,0,1-1.13,1.51,1.21,1.21,0,0,1-.38,0h-3.21a1.34,1.34,0,0,1-1.52-1.13,2.41,2.41,0,0,1,0-.38V15c0-1.31-.26-2-.8-2"/><path class="cls-1" d="M316.54,2.48h18a17.36,17.36,0,0,1,11.75,4.41,13.88,13.88,0,0,1,5.08,10.91q0,6.94-6.86,11.4c-.65.36-1,.68-1,1s.45.48,1.34.71A13.47,13.47,0,0,1,352.22,36a13.12,13.12,0,0,1,3,8q0,8-5.7,12.47a19.75,19.75,0,0,1-12.56,3.92h-20.4A1.33,1.33,0,0,1,315,59.24a1.21,1.21,0,0,1,0-.38V4a1.33,1.33,0,0,1,1.13-1.51,1.21,1.21,0,0,1,.38,0M321.35,8V28.13q1.88,0,5.61.09h7.3A9.56,9.56,0,0,0,341.48,25a10.68,10.68,0,0,0,3-7.57,10.85,10.85,0,0,0-4.1-8.91,15.32,15.32,0,0,0-9.8-3h-7c-1.48,0-2.23.83-2.23,2.49m2.85,24c-1.9,0-2.85.77-2.85,2.3V55.31a1.1,1.1,0,0,0,1,1.23h0a9.77,9.77,0,0,0,1.87.09h9.18q6.5,0,10.33-2.57a9.66,9.66,0,0,0,4.37-8.58A12.66,12.66,0,0,0,344,35.68,14.89,14.89,0,0,0,333.55,32Z"/><path class="cls-1" d="M130,59,107.57,2.3c-.3-.83-.68-1.24-1.16-1.24s-.77.32-1.06,1L82.54,59.22c-.3.83,0,1.25.8,1.25h1.41a1.78,1.78,0,0,0,1.77-.9L103.88,17q.62-1.71,1.32-1.71c.47,0,.91.5,1.32,1.51l16.61,41.93a2.32,2.32,0,0,0,2.12,1.63l3.89.09a1.51,1.51,0,0,0,1.05-.27A1.76,1.76,0,0,0,130,59"/><path class="cls-1" d="M233.61,59,211.17,2.3c-.3-.83-.69-1.24-1.16-1.24s-.77.32-1.07,1l-22.8,57.18c-.3.83,0,1.25.8,1.25h1.41a1.8,1.8,0,0,0,1.78-.9L207.48,17q.61-1.71,1.32-1.71c.47,0,.91.5,1.32,1.51l16.61,41.93a2.32,2.32,0,0,0,2.12,1.63l3.89.09a1.55,1.55,0,0,0,1.06-.27,1.76,1.76,0,0,0-.18-1.25"/><path class="cls-1" d="M414.26,59,391.82,2.3c-.3-.83-.69-1.24-1.16-1.24s-.77.32-1.07,1l-22.8,57.18c-.3.83,0,1.25.8,1.25H369a1.78,1.78,0,0,0,1.77-.9L388.12,17q.61-1.71,1.32-1.71c.47,0,.91.5,1.31,1.51l16.62,41.93a2.31,2.31,0,0,0,2.12,1.63l3.88.09a1.52,1.52,0,0,0,1.06-.27,1.71,1.71,0,0,0-.18-1.25"/><path class="cls-1" d="M43.91,51.6C39.2,40.67,33.45,34.87,26.85,34.35l-.4,0H25.3l-.4,0c-6.6.52-12.34,6.32-17.06,17.25A86.26,86.26,0,0,0,4.47,61l-.6,2H14.48L25.87,35.69,37.26,63H47.87l-.6-2A84.19,84.19,0,0,0,43.9,51.6"/><path class="cls-1" d="M7.84,11.35C12.56,22.29,18.3,28.09,24.9,28.6l.4,0h1.16l.4,0c6.6-.51,12.34-6.32,17.06-17.25A86.26,86.26,0,0,0,47.29,2l.6-2H37.27L25.88,27.26,14.49,0H3.88l.6,2a86.2,86.2,0,0,0,3.36,9.36"/><rect class="cls-1" y="30.13" width="51.75" height="2.7"/><path class="cls-1" d="M426.42,0V1.53h-2.58v7.1H422V1.53h-2.6V0Z"/><path class="cls-1" d="M429.13,8.63h-1.69V0h2.63l1.57,6.79L433.2,0h2.59V8.63h-1.68V1.39l-1.63,7.24h-1.75L429.1,1.39v1.4Z"/></svg>