<svg id="Layer_1" data-name="Layer 1" xmlns="http://www.w3.org/2000/svg" xmlns:xlink="http://www.w3.org/1999/xlink" viewBox="0 0 324.43 165.53"><defs><style>.cls-1,.cls-5{fill:none;}.cls-2{clip-path:url(#clip-path);}.cls-3{fill:#fff;}.cls-4{clip-path:url(#clip-path-2);}.cls-5{stroke:#fff;stroke-miterlimit:10;stroke-width:3.66px;}</style><clipPath id="clip-path"><rect class="cls-1" y="109.53" width="306.11" height="56"/></clipPath><clipPath id="clip-path-2"><rect class="cls-1" x="117.92" width="70.27" height="85.47"/></clipPath></defs><g class="cls-2"><path class="cls-3" d="M71.87,109.61a13.79,13.79,0,0,1,11.25,5.75c.83,1,.85,1.72.09,2.22a4,4,0,0,1-.78.49,2.27,2.27,0,0,1-1,.33c-.22,0-.57-.36-1.07-1.07q-3.28-5.08-8.29-5.09a9.3,9.3,0,0,0-7.64,3.45,12.1,12.1,0,0,0-2.54,7.88,8.56,8.56,0,0,0,3,6.73,27.93,27.93,0,0,0,6.73,3.78c4.81,2.14,8.05,3.91,9.69,5.34a12.48,12.48,0,0,1,4.27,9.93,15.28,15.28,0,0,1-4.85,11.58,16.3,16.3,0,0,1-11.66,4.6q-8.61,0-13-7.06c-.44-.66-.41-1.18.08-1.56a5.72,5.72,0,0,1,1.48-1,.75.75,0,0,1,1,.33A3.69,3.69,0,0,0,59,157q4.44,5.74,9.12,5.75a10.57,10.57,0,0,0,8.13-3.37,11.72,11.72,0,0,0,2.87-8.13,9.93,9.93,0,0,0-3.61-8.13q-1.72-1.47-8.13-4.43a31.3,31.3,0,0,1-8.21-5,12.28,12.28,0,0,1-3.62-9.2,13.51,13.51,0,0,1,4.89-10.59,16.88,16.88,0,0,1,11.45-4.27"/><path class="cls-3" d="M194.63,120.53c-.38,0-.76.5-1.15,1.48L176.82,164.3c-.28.76-.66,1.15-1.15,1.15s-.8-.39-1.07-1.15Q163.92,137,157.93,121.85c-.33-.93-.63-1.4-.91-1.4s-.41.52-.41,1.56V162.9c0,.93-.24,1.4-.73,1.4H154a.63.63,0,0,1-.58-.25,2.46,2.46,0,0,1-.16-1.15V112.32c0-.93.24-1.39.74-1.39h4.27a2.58,2.58,0,0,1,2.54,1.8q11.83,29.8,15.69,39.09c.27.71.52,1.07.74,1.07s.52-.3.73-.91q10-25.29,15.69-39.49a2.17,2.17,0,0,1,2.21-1.56h3.86a1.23,1.23,0,0,1,1.4,1.39V162.9a1.24,1.24,0,0,1-1.4,1.4h-2.95a1.24,1.24,0,0,1-1.4-1.4V122.34c0-1.2-.24-1.81-.74-1.81"/><path class="cls-3" d="M215.82,110.84H232.4a16,16,0,0,1,10.84,4.07A12.8,12.8,0,0,1,247.92,125q0,6.41-6.32,10.51-.9.5-.9.9t1.23.66a12.34,12.34,0,0,1,6.77,4.68,12.06,12.06,0,0,1,2.75,7.39c0,4.92-1.75,8.76-5.25,11.49a18.18,18.18,0,0,1-11.58,3.62h-18.8a1.24,1.24,0,0,1-1.4-1.4V112.24a1.24,1.24,0,0,1,1.4-1.4m4.43,5.09v18.56c1.15,0,2.87,0,5.17.08h6.74a8.84,8.84,0,0,0,6.65-2.95,9.83,9.83,0,0,0,2.79-7,10,10,0,0,0-3.78-8.21,14.11,14.11,0,0,0-9-2.79h-6.48c-1.37,0-2.06.76-2.06,2.29M222.88,138c-1.75,0-2.63.71-2.63,2.12v19.41a1,1,0,0,0,.9,1.14,9.05,9.05,0,0,0,1.73.08h8.46c4,0,7.17-.79,9.52-2.37a8.9,8.9,0,0,0,4-7.9,11.69,11.69,0,0,0-3.73-9.05A13.7,13.7,0,0,0,231.5,138Z"/><path class="cls-3" d="M43.87,162.9,23.18,110.68c-.27-.77-.63-1.15-1.06-1.15s-.72.3-1,.9l-21,52.72c-.28.77,0,1.15.73,1.15H2.15a1.63,1.63,0,0,0,1.63-.83l16-39.23c.38-1,.78-1.57,1.22-1.57s.83.46,1.21,1.39l15.32,38.65a2.15,2.15,0,0,0,1.95,1.51l3.58.08a1.38,1.38,0,0,0,1-.25,1.58,1.58,0,0,0-.17-1.15"/><path class="cls-3" d="M139.37,162.9l-20.69-52.22c-.28-.77-.63-1.15-1.07-1.15s-.71.3-1,.9l-21,52.72c-.28.77,0,1.15.73,1.15h1.31a1.64,1.64,0,0,0,1.63-.83l16-39.23c.37-1,.78-1.57,1.21-1.57s.84.46,1.22,1.39L133,162.71a2.15,2.15,0,0,0,1.95,1.51l3.58.08a1.39,1.39,0,0,0,1-.25,1.64,1.64,0,0,0-.17-1.15"/><path class="cls-3" d="M305.89,162.9,285.2,110.68c-.27-.77-.63-1.15-1.06-1.15s-.72.3-1,.9l-21,52.72c-.27.77,0,1.15.73,1.15h1.31a1.63,1.63,0,0,0,1.63-.83l16-39.23c.38-1,.78-1.57,1.22-1.57s.83.46,1.21,1.39l15.32,38.65a2.15,2.15,0,0,0,1.95,1.51l3.58.08a1.38,1.38,0,0,0,1-.25,1.58,1.58,0,0,0-.17-1.15"/></g><g class="cls-4"><path class="cls-3" d="M182.93,85.47H168.52l-15.46-37-15.46,37H123.18l.81-2.7a117.71,117.71,0,0,1,4.57-12.71c6.41-14.84,14.21-22.72,23.18-23.43l.54,0h1.56l.54,0c9,.71,16.76,8.59,23.17,23.43a117.71,117.71,0,0,1,4.57,12.71Z"/><path class="cls-3" d="M182.12,2.7a117.71,117.71,0,0,1-4.57,12.71c-6.41,14.84-14.2,22.73-23.17,23.43l-.54,0h-1.57l-.53,0c-9-.7-16.77-8.59-23.18-23.43A117.71,117.71,0,0,1,124,2.7L123.18,0H137.6l15.46,37L168.52,0h14.41Z"/><line class="cls-5" x1="188.19" y1="42.74" x2="117.92" y2="42.74"/></g><path class="cls-3" d="M315.06,109.29v1.53h-2.58v7.1h-1.82v-7.1h-2.6v-1.53Z"/><path class="cls-3" d="M317.77,117.92h-1.69v-8.63h2.63l1.57,6.79,1.56-6.79h2.59v8.63h-1.68v-5.84c0-.17,0-.4,0-.7v-.7l-1.63,7.24h-1.75l-1.63-7.24c0,.16,0,.39,0,.7s0,.53,0,.7Z"/></svg>