<svg xmlns="http://www.w3.org/2000/svg" width="414.496" height="62.948" viewBox="0 0 414.496 62.948"><g transform="translate(-208.082 255.085)"><path d="M457.385-253.228q7.3,0,12.2,6.235,1.336,1.6.089,2.405a4.161,4.161,0,0,1-.846.535,2.465,2.465,0,0,1-1.025.356q-.358,0-1.158-1.158-3.562-5.524-9-5.523a10.078,10.078,0,0,0-8.284,3.741,13.081,13.081,0,0,0-2.761,8.551,9.334,9.334,0,0,0,3.206,7.305,30.892,30.892,0,0,0,7.3,4.1q7.837,3.473,10.511,5.789a13.533,13.533,0,0,1,4.632,10.778A16.581,16.581,0,0,1,467-197.556a17.708,17.708,0,0,1-12.648,4.988q-9.354,0-14.163-7.66-.713-1.069.089-1.692a6.216,6.216,0,0,1,1.6-1.069.817.817,0,0,1,1.068.356,3.833,3.833,0,0,0,.445.8q4.811,6.236,9.888,6.236a11.462,11.462,0,0,0,8.818-3.653,12.7,12.7,0,0,0,3.118-8.819,10.772,10.772,0,0,0-3.919-8.818q-1.87-1.6-8.818-4.81-6.326-2.941-8.907-5.435a13.319,13.319,0,0,1-3.919-9.976,14.651,14.651,0,0,1,5.3-11.49,18.287,18.287,0,0,1,12.426-4.632" transform="translate(-88.909 -0.713)" fill="#fff"/><path d="M656.611-240.494q-.625,0-1.247,1.6l-18.082,45.873q-.446,1.248-1.248,1.248-.714,0-1.158-1.248-11.583-29.661-18.084-46.052-.535-1.514-.981-1.514t-.445,1.693v44.359c0,1.011-.267,1.514-.8,1.514h-2.049a.692.692,0,0,1-.625-.266,2.682,2.682,0,0,1-.178-1.248V-249.4q0-1.515.8-1.514h4.632a2.813,2.813,0,0,1,2.762,1.961q12.828,32.333,17.015,42.4c.3.773.563,1.158.8,1.158.3,0,.563-.325.8-.98q10.867-27.434,17.014-42.846a2.365,2.365,0,0,1,2.4-1.692h4.188a1.338,1.338,0,0,1,1.514,1.514v54.871a1.337,1.337,0,0,1-1.514,1.514h-3.206a1.338,1.338,0,0,1-1.516-1.514v-44q0-1.959-.8-1.96" transform="translate(-154.967 -1.601)" fill="#fff"/><path d="M720.948-251.06H738.94a17.387,17.387,0,0,1,11.757,4.41,13.883,13.883,0,0,1,5.079,10.911q0,6.947-6.859,11.4-.982.535-.981.979,0,.358,1.338.713a13.439,13.439,0,0,1,7.348,5.078,13.127,13.127,0,0,1,2.984,8.016q0,8.017-5.7,12.47a19.7,19.7,0,0,1-12.559,3.921h-20.4a1.339,1.339,0,0,1-1.516-1.516v-54.87a1.34,1.34,0,0,1,1.516-1.516m4.81,5.522v20.131q1.868,0,5.611.091h7.3a9.59,9.59,0,0,0,7.215-3.208,10.66,10.66,0,0,0,3.03-7.571,10.838,10.838,0,0,0-4.1-8.908,15.334,15.334,0,0,0-9.8-3.028h-7.037q-2.229,0-2.227,2.493m2.85,23.962q-2.853,0-2.85,2.3v21.049a1.108,1.108,0,0,0,.979,1.237,9.072,9.072,0,0,0,1.87.089h9.176q6.5,0,10.332-2.565a9.658,9.658,0,0,0,4.365-8.576,12.685,12.685,0,0,0-4.052-9.818,14.9,14.9,0,0,0-10.468-3.714Z" transform="translate(-196.323 -1.545)" fill="#fff"/><path d="M389.465-195.472l-22.447-56.653q-.446-1.245-1.156-1.246-.624,0-1.068.979l-22.805,57.187q-.447,1.248.8,1.247H344.2a1.774,1.774,0,0,0,1.771-.9l17.353-42.549q.617-1.712,1.321-1.712t1.319,1.507l16.616,41.936a2.326,2.326,0,0,0,2.119,1.628l3.884.089a1.521,1.521,0,0,0,1.059-.267,1.718,1.718,0,0,0-.179-1.247" transform="translate(-51.366 -0.658)" fill="#fff"/><path d="M557.62-195.472l-22.446-56.653q-.446-1.245-1.157-1.246-.624,0-1.068.979l-22.805,57.187q-.447,1.248.8,1.247h1.417a1.774,1.774,0,0,0,1.771-.9l17.353-42.549q.616-1.712,1.321-1.712t1.319,1.507l16.616,41.936a2.326,2.326,0,0,0,2.119,1.628l3.884.089a1.522,1.522,0,0,0,1.059-.267,1.719,1.719,0,0,0-.179-1.247" transform="translate(-115.925 -0.658)" fill="#fff"/><path d="M850.843-195.472,828.4-252.125q-.446-1.245-1.156-1.246-.624,0-1.068.979l-22.805,57.187q-.447,1.248.8,1.247h1.417a1.774,1.774,0,0,0,1.771-.9L824.7-237.407q.616-1.712,1.321-1.712t1.319,1.507l16.616,41.936a2.326,2.326,0,0,0,2.119,1.628l3.884.089a1.522,1.522,0,0,0,1.059-.267,1.718,1.718,0,0,0-.179-1.247" transform="translate(-228.503 -0.658)" fill="#fff"/><path d="M254.411-182.1c-4.718-10.932-10.46-16.737-17.066-17.256l-.4-.032H235.8l-.4.032c-6.607.519-12.348,6.325-17.067,17.256a86.013,86.013,0,0,0-3.367,9.36l-.6,1.988h10.614l11.387-27.256,11.387,27.256h10.614l-.6-1.988a86.138,86.138,0,0,0-3.369-9.36" transform="translate(-2.414 -21.383)" fill="#fff"/><path d="M218.335-243.737C223.053-232.8,228.8-227,235.4-226.481l.4.032h1.152l.4-.032c6.605-.519,12.348-6.324,17.066-17.256a85.917,85.917,0,0,0,3.368-9.36l.6-1.988H247.761l-11.388,27.257-11.387-27.257H214.371l.6,1.988a86.046,86.046,0,0,0,3.368,9.36" transform="translate(-2.414 0)" fill="#fff"/><rect width="51.754" height="2.698" transform="translate(208.082 -224.959)" fill="#fff"/></g></svg>