<svg xmlns="http://www.w3.org/2000/svg" width="49.636" height="60.372" viewBox="0 0 49.636 60.372"><g transform="translate(154.115 339.867)"><path d="M-104.175-221.111c-4.525-10.485-10.032-16.052-16.368-16.55l-.38-.03h-1.1l-.38.03c-6.336.5-11.843,6.065-16.368,16.55a82.4,82.4,0,0,0-3.231,8.977l-.571,1.906h10.18l10.922-26.141,10.922,26.141h10.18l-.571-1.906a82.535,82.535,0,0,0-3.231-8.977" transform="translate(-7.823 -69.268)" fill="#fff"/><path d="M-138.775-328.983c4.525,10.485,10.032,16.052,16.368,16.55l.38.03h1.105l.379-.03c6.336-.5,11.843-6.066,16.368-16.55a82.4,82.4,0,0,0,3.231-8.977l.571-1.906h-10.18l-10.922,26.142L-132.4-339.867h-10.18l.571,1.906a82.531,82.531,0,0,0,3.231,8.977" transform="translate(-7.823)" fill="#fff"/><rect width="49.636" height="2.587" transform="translate(-154.115 -310.973)" fill="#fff"/></g></svg>